<svg width="217" height="204" viewBox="0 0 217 204" fill="none" xmlns="http://www.w3.org/2000/svg">
<rect width="217" height="204" rx="20" fill="#00BD9A"/>
<mask id="mask0_1_106" style="mask-type:luminance" maskUnits="userSpaceOnUse" x="20" y="20" width="177" height="60">
<path d="M20 20H197V79.3229H20V20Z" fill="white"/>
</mask>
<g mask="url(#mask0_1_106)">
<path d="M23.1821 63.3907C71.7862 63.4792 120.411 63.3646 169.021 63.4584C170.573 63.4584 172.125 63.5001 173.682 63.5365C174.213 63.5469 174.286 63.6928 174.021 64.1199C172.765 65.8126 171.182 67.8699 168.864 67.8542C121.552 67.7501 74.2133 68.0105 26.9164 67.724C26.7133 68.0105 27.3539 68.1615 27.4894 68.3386C29.1925 69.3751 30.9946 70.8334 30.8748 73.0157C30.8644 74.2657 30.906 75.5261 30.9321 76.7813C31.031 77.3074 30.7185 78.4324 31.4216 78.5261C57.1664 78.6771 82.9216 78.4167 108.672 78.5053C108.672 78.5001 108.672 78.4844 108.672 78.4792C134.307 77.9376 161.25 79.5105 186.26 77.9636C187.302 69.5001 187.583 69.599 194.224 64.5001C194.807 64.0521 197.948 61.1719 196.708 60.7709C168.51 48.1928 140.823 34.4115 112.781 21.4532C111.594 21.0886 109.739 19.5261 108.594 20.1771C102.692 23.0834 96.6769 25.7553 90.7394 28.5782C67.5206 39.4636 44.3019 50.3542 20.9633 60.9792C20.7446 61.0261 20.5362 61.1824 20.5623 61.3855C21.1821 62.3803 21.906 63.2917 23.1821 63.3907ZM42.88 59.4063C42.8852 59.3855 42.9425 59.3751 42.9789 59.3646C49.5154 56.6199 55.8748 53.4532 62.3696 50.6042C77.2914 43.8855 92.2289 37.1876 107.146 30.4532C108.265 30.0678 108.969 29.073 110.172 29.823C130.948 39.3959 151.87 48.6407 172.526 58.4792C173.541 59.0365 175.771 59.4271 174.692 60.0053C172.37 60.3646 167.567 57.198 165.057 56.3334C146.646 48.1615 128.453 39.5001 109.984 31.4584C109.474 31.2344 109.041 31.2188 108.515 31.4584C106.036 32.6094 103.531 33.7084 101.041 34.8282C88.4112 40.5313 75.7602 46.1824 63.0831 51.7813C57.1091 54.4324 51.1144 57.0469 45.1508 59.7396C44.4425 60.0574 43.7394 60.1719 43.0206 59.8021C42.8279 59.7396 42.8175 59.573 42.88 59.4063Z" fill="white"/>
</g>
<mask id="mask1_1_106" style="mask-type:luminance" maskUnits="userSpaceOnUse" x="20" y="171" width="177" height="14">
<path d="M20 171.323H196.948V184H20V171.323Z" fill="white"/>
</mask>
<g mask="url(#mask1_1_106)">
<path d="M195.828 178.849C195.818 178.286 195.781 178.24 195.208 178.13C162.271 173.49 129.021 171.057 95.7551 172.156C71.6405 172.771 47.6457 175.75 23.8489 179.531C22.7864 179.698 21.7291 179.875 20.677 180.078C20.0259 180.208 20.0051 180.25 19.9999 180.87C19.9895 181.719 20.0051 182.568 20.0259 183.417C20.0364 183.906 20.1041 183.969 20.6353 183.969C49.7186 183.953 78.802 183.969 107.885 183.964C107.885 183.958 107.885 183.953 107.885 183.948C137.083 183.932 166.276 183.984 195.474 183.911C195.901 183.927 195.896 183.484 195.88 183.167C195.859 181.729 195.849 180.292 195.828 178.849Z" fill="white"/>
</g>
<path d="M26.8179 177.078C44.8491 173.823 62.9533 170.682 81.2554 169.453C110.104 167.401 139.141 168.375 167.88 171.411C175.886 172.333 183.88 173.359 191.849 174.557C192.12 174.594 192.542 174.677 192.547 174.292C192.563 174.036 192.557 173.776 192.547 173.516C192.469 169.865 192.386 166.208 192.292 162.557C192.261 161.219 192.427 161.318 191.005 161.312C163.781 161.255 136.557 161.146 109.328 161.187C109.328 161.193 109.328 161.193 109.328 161.198C81.8127 161.203 54.2814 161.167 26.771 161.349C26.4377 161.458 26.4533 161.885 26.4637 162.177C26.4116 166.979 26.3595 171.776 26.3022 176.578C26.3022 177.01 26.4064 177.115 26.8179 177.078Z" fill="white"/>
<path d="M75.7395 149.505C76.4738 149.505 76.5155 149.474 76.5259 148.786C76.5259 144.802 76.2499 140.818 76.1353 136.833C75.6249 126.479 75.2707 116.115 74.7863 105.75C74.7343 102.948 74.5207 100.151 74.3957 97.3438C74.3749 96.9948 74.2811 96.9115 73.9166 96.8906C68.7395 96.8698 63.5572 96.8698 58.3801 96.8906C57.9634 96.8854 57.9791 97.3385 57.9634 97.651C57.7916 100.594 57.6197 103.542 57.4634 106.49C57.2551 111.875 56.9113 117.255 56.6197 122.635C56.1093 131.443 55.7134 140.255 55.3176 149.068C55.3124 149.438 55.4009 149.521 55.7655 149.542C59.1301 149.552 62.4999 149.542 65.8645 149.542C65.8645 149.521 65.8645 149.505 65.8645 149.484C69.1561 149.484 72.4478 149.469 75.7395 149.505Z" fill="white"/>
<path d="M141.662 149.516C148.021 149.422 154.385 149.495 160.75 149.516C161.724 149.521 161.729 149.516 161.703 148.547C161.583 141.531 161.073 134.542 160.885 127.526C160.589 117.641 159.979 107.76 159.641 97.875C159.599 96.8646 159.583 96.8802 158.651 96.8854C153.656 96.8802 148.662 96.8698 143.672 96.8854C143.401 96.8854 143.266 97.0261 143.25 97.2917C142.672 106.906 142.438 116.542 142.089 126.167C142.078 126.167 142.068 126.167 142.057 126.167C141.719 133.281 141.521 140.411 141.37 147.531C141.479 148.047 140.932 149.438 141.662 149.516Z" fill="white"/>
<path d="M99.5936 137.599C99.4686 141.182 99.3593 144.76 99.2395 148.339C99.1978 149.563 99.0728 149.537 100.411 149.526C106.182 149.505 111.953 149.422 117.724 149.479C118.26 149.484 118.323 149.438 118.323 148.932C118.276 144.76 118 140.594 117.807 136.427C117.146 123.714 116.573 110.99 115.922 98.2709C115.844 96.7032 115.802 96.8907 114.458 96.8855C110.057 96.8698 105.651 96.849 101.25 96.8698C101.042 96.8751 100.896 96.9688 100.88 97.1928C100.739 100.844 100.661 104.5 100.542 108.151C100.375 113.167 100.104 118.188 100.172 123.208C100.151 123.208 100.13 123.208 100.109 123.208C99.9322 128.01 99.7655 132.807 99.5936 137.599Z" fill="white"/>
<path d="M48.8436 123.443C48.6561 114.734 48.2655 106.036 48.0884 97.3332C48.0571 96.9113 47.9894 96.8592 47.5311 96.8384C44.2394 96.8384 40.9478 96.8384 37.6613 96.8436C37.1405 96.8436 36.6248 96.8436 36.1092 96.8592C35.6353 96.8748 35.5884 96.9165 35.5623 97.3592C34.6717 114.458 34.0832 131.568 33.5519 148.677C33.4998 150.073 33.3332 149.979 34.8228 149.974C39.5155 149.963 44.2134 149.948 48.9061 149.937C49.4165 149.974 49.6613 149.739 49.5936 149.219C49.5259 140.62 48.9998 132.036 48.9009 123.437C48.8801 123.437 48.8644 123.443 48.8436 123.443Z" fill="white"/>
<path d="M28.3439 153.458C28.2866 154.677 28.2658 155.896 28.2345 157.109C28.2293 157.318 28.3543 157.458 28.5731 157.469C55.4689 157.547 82.3647 157.469 109.261 157.495C136.193 157.453 163.13 157.568 190.063 157.458C190.417 157.443 190.537 157.307 190.495 156.969C190.339 155.839 190.219 154.693 190.026 153.568C137.24 151.594 82.4324 153.641 28.9845 152.938C28.4585 152.938 28.3699 152.974 28.3439 153.458Z" fill="white"/>
<path d="M182.495 97.8853C182.463 96.8228 182.453 96.8228 181.344 96.8228C177.609 96.8332 173.87 96.8071 170.135 96.8436C169.755 96.8644 169.677 96.9269 169.656 97.2915C169.224 105.953 169.406 114.64 169.24 123.312C169.224 123.312 169.219 123.312 169.203 123.312C168.865 131.797 168.885 140.292 168.724 148.776C168.682 149.068 168.708 149.38 169.016 149.505C173.807 149.588 178.63 149.505 183.432 149.526C184.031 149.526 184.099 149.474 184.088 148.911C183.937 138.578 183.385 128.255 183.141 117.922C182.885 111.245 182.672 104.568 182.495 97.8853Z" fill="white"/>
<path d="M185.167 82.5571C173.036 82.5884 160.911 82.6196 148.781 82.6457C145.49 82.6509 142.198 82.6457 138.906 82.6613C137.88 82.6613 137.927 82.6457 137.927 83.63C137.938 86.7707 137.958 89.9061 137.953 93.0415C137.948 94.0363 137.964 93.9946 138.927 93.9894C154.422 93.9738 169.917 93.9946 185.411 94.0519C185.771 94.0467 185.797 93.6717 185.781 93.3853C185.786 89.9894 185.797 86.5936 185.797 83.1978C185.797 82.6092 185.74 82.5571 185.167 82.5571Z" fill="white"/>
<path d="M79.745 82.6302C67.8387 82.4948 55.9325 82.6511 44.0262 82.6406C40.4793 82.6511 36.9272 82.6406 33.3804 82.6667C32.12 82.6719 32.2033 82.5313 32.2033 83.8906C32.2033 86.8438 32.2241 89.7969 32.2397 92.75C32.245 94.125 32.1095 93.9896 33.4897 93.9896C41.0314 93.9896 48.5731 93.9896 56.12 93.9896C56.12 94 56.12 94.0104 56.12 94.0208C63.9533 94.0521 71.797 93.9479 79.6304 94.0677C80.2085 94.0365 79.9793 93.2396 80.047 92.8542C80.0679 89.7188 80.0835 86.5781 80.0991 83.4427C80.0887 83.1458 80.1512 82.6615 79.745 82.6302Z" fill="white"/>
<path d="M127.974 94.0156C128.537 93.8906 130.271 94.4323 130.333 93.7604C130.375 90.2552 130.349 86.7448 130.344 83.2395C130.318 82.7187 130.271 82.651 129.787 82.6302C116.136 82.5885 102.49 82.6666 88.8387 82.6198C88.3595 82.677 87.4428 82.3906 87.5314 83.125C87.547 86.5208 87.5522 89.9166 87.5626 93.3125C87.5522 93.5937 87.5418 93.9895 87.9168 93.9895C94.9428 94.0416 101.974 93.9895 109 94.0052V94.0104C115.328 94.0104 121.651 94.0104 127.974 94.0156Z" fill="white"/>
<mask id="mask2_1_106" style="mask-type:luminance" maskUnits="userSpaceOnUse" x="79" y="94" width="59" height="59">
<path d="M79.3228 94.4165H137.323V152.417H79.3228V94.4165Z" fill="white"/>
</mask>
<g mask="url(#mask2_1_106)">
<path d="M137.229 123.37C137.229 139.364 124.265 152.323 108.276 152.323C92.2811 152.323 79.3228 139.364 79.3228 123.37C79.3228 107.38 92.2811 94.4165 108.276 94.4165C124.265 94.4165 137.229 107.38 137.229 123.37Z" fill="white"/>
</g>
<mask id="mask3_1_106" style="mask-type:luminance" maskUnits="userSpaceOnUse" x="79" y="95" width="58" height="58">
<path d="M79.6147 95.3228H136.948V152.417H79.6147V95.3228Z" fill="white"/>
</mask>
<g mask="url(#mask3_1_106)">
<path d="M136.724 123.594C136.724 139.182 124.083 151.823 108.495 151.823C92.9064 151.823 80.271 139.182 80.271 123.594C80.271 108.005 92.9064 95.3644 108.495 95.3644C124.083 95.3644 136.724 108.005 136.724 123.594Z" fill="white"/>
</g>
<path d="M130.047 123.167C130.047 135.328 120.188 145.188 108.026 145.188C95.8647 145.188 86.0054 135.328 86.0054 123.167C86.0054 111.005 95.8647 101.146 108.026 101.146C120.188 101.146 130.047 111.005 130.047 123.167Z" fill="white"/>
<path d="M129.61 123.635C129.61 135.276 120.177 144.708 108.537 144.708C96.896 144.708 87.4585 135.276 87.4585 123.635C87.4585 111.995 96.896 102.557 108.537 102.557C120.177 102.557 129.61 111.995 129.61 123.635Z" fill="white"/>
<path d="M116.302 125.359C114.136 123.015 110.552 121.687 108.615 121.687C107.719 121.687 105.969 121 104.755 119.937C104.287 119.396 103.979 118.781 103.979 118.125C103.979 115.583 107.11 114.177 109.271 114.177C110.5 114.177 111.927 114.776 112.948 115.661C113.453 116.25 113.578 116.729 113.578 117.411C113.578 117.411 114.297 117.953 114.297 118.125H118.224C118.224 116.099 117.214 114.276 115.729 112.901C113.943 110.958 111.229 109.729 108.75 109.729C104.318 109.729 99.5314 112.739 99.5314 117.604C99.5314 119.682 100.557 121.417 101.985 122.739C103.99 124.911 107.104 126.14 109.136 126.14C110.11 126.14 112.224 126.995 113.547 128.151C113.932 128.599 114.177 129.083 114.177 129.568C114.177 132.036 112.198 133.515 108.886 133.515C107.094 133.515 105.714 132.979 104.776 132.187C104.167 131.479 103.844 130.64 103.844 129.818C103.844 129.818 103.13 129.276 103.13 129.104L99.396 129.297C99.396 131.333 100.318 133.406 102 134.953C103.63 136.724 106.162 137.963 109.406 137.963C114.922 137.963 118.63 134.797 118.63 130.088C118.63 128.208 117.656 126.614 116.302 125.359Z" fill="white"/>
<path d="M110.031 106.682L107.276 106.88L107.083 140.187L107.797 140.901H110.745V107.401L110.031 106.682Z" fill="white"/>
<path d="M115.396 124.453C113.229 122.109 109.646 120.781 107.708 120.781C106.813 120.781 105.063 120.094 103.849 119.031C103.38 118.484 103.073 117.87 103.073 117.219C103.073 114.677 106.203 113.271 108.365 113.271C109.594 113.271 111.021 113.87 112.037 114.755C112.547 115.344 112.865 116.015 112.865 116.698C112.865 116.698 113.578 117.239 113.578 117.411L117.318 117.219C117.318 115.193 116.307 113.37 114.818 111.989C113.037 110.052 110.318 108.823 107.844 108.823C103.406 108.823 98.62 111.833 98.62 116.698C98.62 118.776 99.6512 120.51 101.078 121.833C103.083 124 106.193 125.229 108.229 125.229C109.203 125.229 111.318 126.088 112.641 127.239C113.026 127.693 113.271 128.177 113.271 128.656C113.271 131.13 111.292 132.604 107.979 132.604C106.188 132.604 104.802 132.073 103.865 131.281C103.255 130.568 103.13 129.922 103.13 129.104C103.13 129.104 102.417 128.562 102.417 128.39H98.4897C98.4897 130.427 99.4064 132.5 101.094 134.042C102.724 135.818 105.255 137.057 108.5 137.057C114.016 137.057 117.719 133.89 117.719 129.177C117.719 127.302 116.75 125.708 115.396 124.453Z" fill="white"/>
<path d="M109.318 105.969H106.37V139.474L107.083 140.188L109.838 139.995L110.031 106.682L109.318 105.969Z" fill="white"/>
<path d="M108.693 137.25C102.75 137.25 99.2031 133.11 99.2031 129.104H103.13C103.13 131.146 105.078 133.323 108.693 133.323C112.005 133.323 113.984 131.844 113.984 129.37C113.984 127.386 109.896 125.422 108.422 125.422C105.219 125.422 99.3385 122.38 99.3385 117.412C99.3385 112.547 104.125 109.537 108.557 109.537C112.698 109.537 117.51 112.974 117.51 117.412H113.578C113.578 115.38 110.75 113.464 108.557 113.464C106.396 113.464 103.266 114.87 103.266 117.412C103.266 119.682 106.969 121.495 108.422 121.495C111.323 121.495 117.911 124.469 117.911 129.37C117.911 134.083 114.208 137.25 108.693 137.25Z" fill="#00BD9A"/>
<path d="M110.031 140.187H107.083V106.682H110.031V140.187Z" fill="#00BD9A"/>
</svg>
